<svg width="108" height="32" viewBox="0 0 108 32" fill="none" xmlns="http://www.w3.org/2000/svg">
  <path fill-rule="evenodd" clip-rule="evenodd" d="M44.0396 0H8.27335V8.93678H21.7282L7.36125 24.5548L0 32H31.7316L31.7318 31.9995H44.7241L46.3574 27.7319H57.478L59.1577 31.9995H70V32H80.8051V23.3145H84.315C93.0436 23.3145 99 19.2005 99 11.4741V11.3831C99 3.79436 93.1355 0 84.546 0H70V30.4044L57.2948 0H44.0456L43.9037 0.425731L38.2041 20.1977H42.6755L31.7321 31.9983L34.2846 23.2826H22.5352L44.0396 0ZM49.0331 20.1977L51.9384 12.483L54.8436 20.1977H49.0331ZM83.7138 15.6816C86.4833 15.6816 88.3314 14.4472 88.3314 12.1602V12.0692C88.3314 9.738 86.6225 8.54771 83.7611 8.54771H80.8051V15.679H83.7138V15.6816Z" fill="#FFFF00"/>
  <path d="M102.998 32L104.598 26.4H106.118L107.71 32H106.822L106.454 30.68H104.262L103.894 32H102.998ZM104.478 29.88H106.238L105.422 26.936H105.294L104.478 29.88Z" fill="#FFFF00"/>
  <path d="M99.0091 32V27.184H97.2891V26.4H101.593V27.184H99.8731V32H99.0091Z" fill="#FFFF00"/>
  <path d="M91.6043 32V26.4H95.1323V27.184H92.4683V28.792H94.9083V29.576H92.4683V31.216H95.1723V32H91.6043Z" fill="#FFFF00"/>
  <path d="M84.4916 32V31.232H85.2436V27.168H84.4916V26.4H87.3316C87.6676 26.4 87.961 26.4587 88.2116 26.576C88.4623 26.688 88.657 26.8507 88.7956 27.064C88.9396 27.272 89.0116 27.52 89.0116 27.808V27.888C89.0116 28.144 88.9636 28.3547 88.8676 28.52C88.7716 28.6853 88.6543 28.8133 88.5156 28.904C88.3823 28.9947 88.2543 29.0587 88.1316 29.096V29.224C88.2543 29.256 88.385 29.32 88.5236 29.416C88.6676 29.5067 88.7876 29.6347 88.8836 29.8C88.985 29.9653 89.0356 30.1813 89.0356 30.448V30.528C89.0356 30.8373 88.9636 31.1013 88.8196 31.32C88.6756 31.5387 88.4756 31.7067 88.2196 31.824C87.969 31.9413 87.6783 32 87.3476 32H84.4916ZM86.1156 31.216H87.2436C87.5316 31.216 87.7583 31.1467 87.9236 31.008C88.089 30.8693 88.1716 30.6773 88.1716 30.432V30.36C88.1716 30.1147 88.089 29.9227 87.9236 29.784C87.7636 29.6453 87.537 29.576 87.2436 29.576H86.1156V31.216ZM86.1156 28.784H87.2436C87.5156 28.784 87.7343 28.7173 87.8996 28.584C88.065 28.4453 88.1476 28.2587 88.1476 28.024V27.944C88.1476 27.7093 88.065 27.5253 87.8996 27.392C87.7396 27.2533 87.521 27.184 87.2436 27.184H86.1156V28.784Z" fill="#FFFF00"/>
</svg>