<?xml version="1.0" encoding="utf-8"?>
<!-- Generator: Adobe Illustrator 25.2.1, SVG Export Plug-In . SVG Version: 6.00 Build 0)  -->
<svg version="1.1" id="Layer_1" xmlns="http://www.w3.org/2000/svg" xmlns:xlink="http://www.w3.org/1999/xlink" x="0px" y="0px"
	 viewBox="0 0 698.74 999.03" style="enable-background:new 0 0 698.74 999.03;" xml:space="preserve">
<style type="text/css">
	.st0{display:none;fill:#1F162B;}
	.st1{fill:none;}
	.st3{fill:#60ABFC;}
	.st4{fill:#5170FE;}
	.st5{fill:#4536FC;}
	.st6{fill:url(#SVGID_1_);}
	.st7{fill:url(#SVGID_2_);}
	.st8{fill:url(#SVGID_3_);}
	.st9{fill:url(#SVGID_4_);}
	.st10{fill:url(#SVGID_5_);}
</style>
<rect y="-0.97" class="st0" width="1000" height="1000"/>
<g>
	<polygon class="st1" points="349.37,777.17 376.5,755.47 376.5,229.98 323.07,229.98 323.07,756.13 	"/>
	<path class="st1" d="M433.13,346.58h113.53h35.49v211.96c0,66.67-29.86,128.8-81.92,170.46l-67.1,53.69l-55.44,44.36L376.5,828
		l-27.13,21.7l-26.3-21.04l-2.02-1.61l-54.61-43.7L198.51,729c-52.06-41.66-81.92-103.79-81.92-170.46V346.58h35.49h113.94h0.41
		v-59.96H152.5H56.63v271.92c0,84.99,38.06,164.18,104.42,217.28L349.37,926.5L537.7,775.82c66.36-53.1,104.42-132.29,104.42-217.28
		V286.62h-95.04H433.13V346.58z"/>
	<path class="st1" d="M321.06,229.98L321.06,229.98c0.07,0,0.15,0,0.22,0H321.06z"/>
	<path class="st3" d="M233.9,684.78c-38.56-30.85-60.67-76.86-60.67-126.24V403.21h-21.14v-56.63H116.6v211.96
		c0,66.67,29.86,128.8,81.92,170.46l67.93,54.35v-72.53L233.9,684.78z"/>
	<rect x="266.03" y="346.58" class="st3" width="0.41" height="56.63"/>
	<path class="st3" d="M525.52,403.21v155.33c0,49.38-22.11,95.39-60.67,126.24l-31.72,25.38v72.53l67.1-53.69
		c52.06-41.66,81.92-103.79,81.92-170.46V346.58h-35.49v56.63H525.52z"/>
	<path class="st3" d="M547.07,286.62h95.04v271.92c0,84.98-38.06,164.18-104.42,217.28L349.37,926.5L161.05,775.81
		C94.69,722.72,56.63,643.52,56.63,558.54V286.62h95.87v-56.63H0v328.55c0,102.28,45.81,197.59,125.67,261.5l223.7,179l223.7-179
		c79.86-63.9,125.67-159.22,125.67-261.5V229.98H547.07V286.62z"/>
	<polygon class="st4" points="349.37,777.17 323.07,756.13 323.07,828.66 349.37,849.7 376.5,828 376.5,755.47 	"/>
	<path class="st4" d="M321.06,346.58v56.63v351.31l2.02,1.61V229.98h-1.8c-0.07,0-0.15,0-0.22,0v56.63h-54.61v59.96H321.06z"/>
	<polygon class="st4" points="266.44,710.82 321.06,754.52 321.06,403.21 266.44,403.21 	"/>
	<rect x="266.44" y="346.58" class="st4" width="54.61" height="56.63"/>
	<polygon class="st4" points="266.44,710.82 266.44,783.35 321.06,827.05 321.06,754.52 	"/>
	<polygon class="st4" points="321.06,286.62 321.06,229.98 321.06,229.98 266.44,229.98 266.44,286.62 	"/>
	<polygon class="st4" points="321.06,754.52 321.06,827.05 323.07,828.66 323.07,756.13 	"/>
	<polygon class="st4" points="377.69,754.52 377.69,403.21 377.69,346.58 432.72,346.58 433.13,346.58 433.13,286.62 377.69,286.62 
		377.69,229.98 376.5,229.98 376.5,755.47 	"/>
	<polygon class="st4" points="433.13,403.21 432.72,403.21 377.69,403.21 377.69,754.52 433.13,710.16 	"/>
	<polygon class="st4" points="377.69,754.52 377.69,827.05 433.13,782.69 433.13,710.16 	"/>
	<rect x="377.69" y="346.58" class="st4" width="55.03" height="56.63"/>
	<rect x="377.69" y="229.98" class="st4" width="55.44" height="56.63"/>
	<polygon class="st4" points="376.5,755.47 376.5,828 377.69,827.05 377.69,754.52 	"/>
	<path class="st5" d="M321.28,229.98c0.6,0.01,1.2,0.01,1.8-0.01v0.01h53.42v-0.01h1.19v0.01h55.44v-56.63h-55.44v28.32h-56.63
		v-28.32h-54.61v56.63h54.61H321.28z"/>
	<path class="st5" d="M323.07,229.97c-0.6,0.03-1.2,0.03-1.8,0.01h1.8V229.97z"/>
	<rect x="376.5" y="229.97" class="st5" width="1.19" height="0.01"/>
	<rect x="321.06" y="56.63" class="st5" width="56.63" height="116.72"/>
	<rect x="321.06" y="173.35" class="st5" width="56.63" height="28.32"/>
	<polygon class="st5" points="377.69,34.98 377.69,56.63 396.13,56.63 396.13,0 302.61,0 302.61,56.63 321.06,56.63 321.06,34.98 	
		"/>
	<rect x="321.06" y="34.98" class="st5" width="56.63" height="21.65"/>
	<rect x="433.13" y="229.98" class="st3" width="113.94" height="56.63"/>
	<linearGradient id="SVGID_1_" gradientUnits="userSpaceOnUse" x1="463.9463" y1="256.8006" x2="416.5678" y2="254.0862">
		<stop  offset="0" style="stop-color:#4536FC;stop-opacity:0"/>
		<stop  offset="1" style="stop-color:#4536FC"/>
	</linearGradient>
	<rect x="433.13" y="229.98" class="st6" width="113.94" height="56.63"/>
	<rect x="152.5" y="229.98" class="st3" width="113.94" height="56.63"/>
	
		<linearGradient id="SVGID_2_" gradientUnits="userSpaceOnUse" x1="336.7621" y1="-1867.7399" x2="289.3836" y2="-1870.4542" gradientTransform="matrix(-1 0 0 -1 572.3886 -1607.9421)">
		<stop  offset="0" style="stop-color:#4536FC;stop-opacity:0"/>
		<stop  offset="1" style="stop-color:#4536FC"/>
	</linearGradient>
	<rect x="152.5" y="229.98" class="st7" width="113.94" height="56.63"/>
	<polygon class="st3" points="525.52,403.21 546.66,403.21 546.66,346.58 433.13,346.58 433.13,403.21 	"/>
	<linearGradient id="SVGID_3_" gradientUnits="userSpaceOnUse" x1="463.5322" y1="373.3842" x2="416.1537" y2="370.6699">
		<stop  offset="0" style="stop-color:#4536FC;stop-opacity:0"/>
		<stop  offset="1" style="stop-color:#4536FC"/>
	</linearGradient>
	<polygon class="st8" points="525.52,403.21 546.66,403.21 546.66,346.58 433.13,346.58 433.13,403.21 	"/>
	<rect x="432.72" y="346.58" class="st4" width="0.41" height="56.63"/>
	<linearGradient id="SVGID_4_" gradientUnits="userSpaceOnUse" x1="463.3458" y1="376.6376" x2="415.9673" y2="373.9232">
		<stop  offset="0" style="stop-color:#4536FC;stop-opacity:0"/>
		<stop  offset="1" style="stop-color:#4536FC"/>
	</linearGradient>
	<rect x="432.72" y="346.58" class="st9" width="0.41" height="56.63"/>
	<polygon class="st3" points="173.23,403.21 266.03,403.21 266.03,346.58 152.08,346.58 152.08,403.21 	"/>
	
		<linearGradient id="SVGID_5_" gradientUnits="userSpaceOnUse" x1="337.1768" y1="-1984.3353" x2="289.7983" y2="-1987.0497" gradientTransform="matrix(-1 0 0 -1 572.3886 -1607.9421)">
		<stop  offset="0" style="stop-color:#4536FC;stop-opacity:0"/>
		<stop  offset="1" style="stop-color:#4536FC"/>
	</linearGradient>
	<polygon class="st10" points="173.23,403.21 266.03,403.21 266.03,346.58 152.08,346.58 152.08,403.21 	"/>
</g>
</svg>
